<?xml version="1.0" encoding="UTF-8"?>
<svg width="496px" height="144px" viewBox="0 0 496 144" version="1.1" xmlns="http://www.w3.org/2000/svg" xmlns:xlink="http://www.w3.org/1999/xlink">
    <!-- Generator: Sketch 56.3 (81716) - https://sketch.com -->
    <title>ellipsis-h-solid</title>
    <desc>Created with Sketch.</desc>
    <g id="Page-1" stroke="none" stroke-width="1" fill="none" fill-rule="evenodd">
        <g id="ellipsis-h-solid" fill="#FFFFFF" fill-rule="nonzero">
            <path d="M320,72 C320,111.8 287.8,144 248,144 C208.2,144 176,111.8 176,72 C176,32.2 208.2,0 248,0 C287.8,0 320,32.2 320,72 Z M424,0 C384.2,0 352,32.2 352,72 C352,111.8 384.2,144 424,144 C463.8,144 496,111.8 496,72 C496,32.2 463.8,0 424,0 Z M72,0 C32.2,0 0,32.2 0,72 C0,111.8 32.2,144 72,144 C111.8,144 144,111.8 144,72 C144,32.2 111.8,0 72,0 Z" id="Shape"></path>
        </g>
    </g>
</svg>