<svg xmlns="http://www.w3.org/2000/svg" width="32" height="32.969" viewBox="0 0 32 32.969">
  <metadata><?xpacket begin="﻿" id="W5M0MpCehiHzreSzNTczkc9d"?>
<x:xmpmeta xmlns:x="adobe:ns:meta/" x:xmptk="Adobe XMP Core 5.6-c138 79.159824, 2016/09/14-01:09:01        ">
   <rdf:RDF xmlns:rdf="http://www.w3.org/1999/02/22-rdf-syntax-ns#">
      <rdf:Description rdf:about=""/>
   </rdf:RDF>
</x:xmpmeta>
                                                                                                    
                                                                                                    
                                                                                                    
                                                                                                    
                                                                                                    
                                                                                                    
                                                                                                    
                                                                                                    
                                                                                                    
                                                                                                    
                                                                                                    
                                                                                                    
                                                                                                    
                                                                                                    
                                                                                                    
                                                                                                    
                                                                                                    
                                                                                                    
                                                                                                    
                                                                                                    
                           
<?xpacket end="w"?></metadata>
<defs>
    <style>
      .cls-1 {
        fill: #fff;
        fill-rule: evenodd;
      }
    </style>
  </defs>
  <path id="Kształt_1" data-name="Kształt 1" class="cls-1" d="M338.038,762.584a1.635,1.635,0,0,0,.776.185,1.109,1.109,0,0,0,.338-0.056c0.09-.027.186-0.055,0.3-0.087,1.079-.355,2.117-0.711,3.074-1.059s1.911-.673,2.848-0.978,1.885-.592,2.848-0.86,2-.506,3.1-0.709,2.319-.375,3.619-0.509,2.787-.23,4.395-0.286a12.673,12.673,0,0,1,3.4.316c0.832,0.264.832,0.644,0.832,0.77a1.2,1.2,0,0,1-.166.506c-0.126.25-.267,0.512-0.414,0.778s-0.3.524-.428,0.759a1.516,1.516,0,0,0-.232.688,1.168,1.168,0,0,0,.3.821,1.8,1.8,0,0,0,.64.438,2.625,2.625,0,0,0,.725.182q0.34,0.033.575,0.033a3.279,3.279,0,0,0,1.829-.541,6.008,6.008,0,0,0,2.218-2.643,3.292,3.292,0,0,0,.317-1.2,4.09,4.09,0,0,0-.61-2.081,4.83,4.83,0,0,0-1.754-1.629,9.947,9.947,0,0,0-2.887-1.038,19.906,19.906,0,0,0-4.083-.37,47.7,47.7,0,0,0-5.423.312c-1.8.207-3.558,0.488-5.216,0.836s-3.226.754-4.657,1.2a34.935,34.935,0,0,0-3.765,1.389,13.092,13.092,0,0,0-2.56,1.434,2.069,2.069,0,0,0-1.028,1.486,2.182,2.182,0,0,0,.136.766,2.389,2.389,0,0,0,.373.659,1.911,1.911,0,0,0,.585.483h0Zm12.2,8.477q0.823-1.653,1.582-3.2t1.442-2.922q0.687-1.375,1.224-2.462a2.325,2.325,0,0,0,.272-1.073,1.787,1.787,0,0,0-.438-1.2,1.718,1.718,0,0,0-1.366-.533,2.307,2.307,0,0,0-1.386.952,25.634,25.634,0,0,0-1.935,2.452c-0.741,1.043-1.583,2.32-2.5,3.793s-1.88,3.112-2.9,4.907-2.087,3.735-3.175,5.79-2.2,4.228-3.286,6.448a2.571,2.571,0,0,0-.257.71,3.022,3.022,0,0,0-.061.577,1.491,1.491,0,0,0,.6,1.276,2.23,2.23,0,0,0,1.355.412,3.926,3.926,0,0,0,1.109-.173,4.708,4.708,0,0,0,1.139-.513,5.033,5.033,0,0,0,1.039-.863,5.253,5.253,0,0,0,.821-1.18c0.232-.386.529-0.927,0.887-1.606s0.751-1.448,1.195-2.318,0.917-1.81,1.431-2.828,1.038-2.072,1.573-3.161,1.078-2.182,1.627-3.284h0Z" transform="translate(-336.938 -754.031)"/>
</svg>
