<?xml version="1.0" encoding="UTF-8"?>
<svg width="32px" height="34px" viewBox="0 0 32 34" version="1.1" xmlns="http://www.w3.org/2000/svg" xmlns:xlink="http://www.w3.org/1999/xlink">
    <!-- Generator: Sketch 56.3 (81716) - https://sketch.com -->
    <title>timeateam-markWhite</title>
    <desc>Created with Sketch.</desc>
    <g id="Page-1" stroke="none" stroke-width="1" fill="none" fill-rule="evenodd">
        <g id="timeateam-markWhite" fill="#70CEA2">
            <path d="M1.1,9.553 C1.33942404,9.6777929 1.6060261,9.74135138 1.876,9.738 C1.99088726,9.73695437 2.10491432,9.71806231 2.214,9.682 C2.304,9.655 2.4,9.627 2.514,9.595 C3.593,9.24 4.631,8.884 5.588,8.536 C6.545,8.188 7.499,7.863 8.436,7.558 C9.373,7.253 10.321,6.966 11.284,6.698 C12.247,6.43 13.284,6.192 14.384,5.989 C15.484,5.786 16.703,5.614 18.003,5.48 C19.303,5.346 20.79,5.25 22.398,5.194 C23.5403993,5.14546738 24.684112,5.25176538 25.798,5.51 C26.63,5.774 26.63,6.154 26.63,6.28 C26.6132627,6.45897069 26.5565326,6.63189495 26.464,6.786 C26.338,7.036 26.197,7.298 26.05,7.564 C25.903,7.83 25.75,8.088 25.622,8.323 C25.4900799,8.53015565 25.4104633,8.76626005 25.39,9.011 C25.3799693,9.31318045 25.4875077,9.60747714 25.69,9.832 C25.8689735,10.0227688 26.0873753,10.1722375 26.33,10.27 C26.5617474,10.3649407 26.8058887,10.4262286 27.055,10.452 C27.2816667,10.474 27.4733333,10.4850926 27.63,10.4850926 C28.279805,10.4898837 28.9164089,10.3015826 29.459,9.944 C30.4408485,9.2988138 31.2119874,8.37991378 31.677,7.301 C31.8577978,6.92471791 31.9653761,6.51748137 31.994,6.101 C31.9816152,5.36508258 31.770874,4.64614402 31.384,4.02 C30.945284,3.33842489 30.342093,2.7782207 29.63,2.391 C28.7271364,1.89778372 27.7532218,1.54761978 26.743,1.353 C25.3983618,1.0894698 24.030107,0.965479045 22.66,0.983 C20.8478744,0.983905524 19.0372727,1.08807438 17.237,1.295 C15.437,1.502 13.679,1.783 12.021,2.131 C10.363,2.479 8.795,2.885 7.364,3.331 C6.08342194,3.72147591 4.82634847,4.18524087 3.599,4.72 C2.69462709,5.10056008 1.83590166,5.5815805 1.039,6.154 C0.486715392,6.46562227 0.107835572,7.01330263 0.0109865158,7.64 C0.0100809793,7.90141868 0.0561463602,8.16087516 0.147,8.406 C0.235507509,8.64409991 0.361422225,8.8665605 0.52,9.065 C0.680762647,9.26347656 0.879681542,9.42771216 1.105,9.548 L1.105,9.548 L1.1,9.553 Z M13.3,18.03 C13.8486667,16.928 14.376,15.8613333 14.882,14.83 C15.388,13.7986667 15.8686667,12.8246667 16.324,11.908 C16.782,10.9913333 17.19,10.1706667 17.548,9.446 C17.7237291,9.11544738 17.8170402,8.74734877 17.82,8.373 C17.8268404,7.9326964 17.6708665,7.50537061 17.382,7.173 C17.0291575,6.80018527 16.5280945,6.60467535 16.016,6.64 C15.4506888,6.77167419 14.955787,7.11160673 14.63,7.592 C13.9357567,8.36923977 13.2895573,9.18809287 12.695,10.044 C11.954,11.087 11.112,12.364 10.195,13.837 C9.278,15.31 8.315,16.949 7.295,18.744 C6.275,20.539 5.208,22.479 4.12,24.534 C3.032,26.589 1.92,28.762 0.834,30.982 C0.71385725,31.2047285 0.627256841,31.4439748 0.577,31.692 C0.538207265,31.8819317 0.517779804,32.0751554 0.516,32.269 C0.489539329,32.7680041 0.714812223,33.2470845 1.116,33.545 C1.51089965,33.8259198 1.9865642,33.9705499 2.471,33.957 C2.84704449,33.9527461 3.22052705,33.8944842 3.58,33.784 C3.98076804,33.6643521 4.36380562,33.4918339 4.719,33.271 C5.10253489,33.0313223 5.45201438,32.7410424 5.758,32.408 C6.08444684,32.0541472 6.36069954,31.657097 6.579,31.228 C6.811,30.842 7.108,30.301 7.466,29.622 C7.824,28.943 8.217,28.174 8.661,27.304 C9.105,26.434 9.578,25.494 10.092,24.476 C10.606,23.458 11.13,22.404 11.665,21.315 C12.2,20.226 12.743,19.133 13.292,18.031 L13.292,18.031 L13.3,18.03 Z" id="Kształt_1"></path>
        </g>
    </g>
</svg>