<?xml version="1.0" encoding="UTF-8"?>
<svg width="512px" height="448px" viewBox="0 0 512 448" version="1.1" xmlns="http://www.w3.org/2000/svg" xmlns:xlink="http://www.w3.org/1999/xlink">
    <!-- Generator: Sketch 56.3 (81716) - https://sketch.com -->
    <title>sort-amount-down-solid</title>
    <desc>Created with Sketch.</desc>
    <g id="Page-1" stroke="none" stroke-width="1" fill="none" fill-rule="evenodd">
        <g id="sort-amount-down-solid" transform="translate(-1.000000, 0.000000)" fill="#FFFFFF" fill-rule="nonzero">
            <path d="M305,384 L241,384 C232.163444,384 225,391.163444 225,400 L225,432 C225,440.836556 232.163444,448 241,448 L305,448 C313.836556,448 321,440.836556 321,432 L321,400 C321,391.163444 313.836556,384 305,384 Z M177,320 L129,320 L129,16 C129,7.163444 121.836556,0 113,0 L81,0 C72.163444,0 65,7.163444 65,16 L65,320 L17,320 C2.81,320 -4.37,337.24 5.71,347.31 L85.71,443.31 C91.9575393,449.553446 102.082461,449.553446 108.33,443.31 L188.33,347.31 C198.35,337.26 191.22,320 177,320 Z M433,128 L241,128 C232.163444,128 225,135.163444 225,144 L225,176 C225,184.836556 232.163444,192 241,192 L433,192 C441.836556,192 449,184.836556 449,176 L449,144 C449,135.163444 441.836556,128 433,128 Z M369,256 L241,256 C232.163444,256 225,263.163444 225,272 L225,304 C225,312.836556 232.163444,320 241,320 L369,320 C377.836556,320 385,312.836556 385,304 L385,272 C385,263.163444 377.836556,256 369,256 Z M497,0 L241,0 C232.163444,0 225,7.163444 225,16 L225,48 C225,56.836556 232.163444,64 241,64 L497,64 C505.836556,64 513,56.836556 513,48 L513,16 C513,7.163444 505.836556,0 497,0 Z" id="Shape"></path>
        </g>
    </g>
</svg>